<svg version="1.1" id="Layer_1" data-name="Layer 1" xmlns="http://www.w3.org/2000/svg"
  width="500" height="500" viewBox="0 0 2000 2000">
  <defs>
    <style>
      .cls-1 {
      fill:rgb(255, 255, 255);
      stroke:rgb(0, 0, 0);
      stroke-width: .2;
      <!-- stroke-miterlimit: 10; -->
      opacity: 100%;
      }
      .cls-2 {
   fill:rgb(255, 255, 255);
      stroke:rgb(0, 0, 0);
      <!-- stroke-miterlimit: 10; -->
      opacity: 100%;
      }
    </style>
  </defs>

  <!-- <rect width="100%" height="100%" fill="blue" /> -->
  <!-- <g viewBox="0 0 1000 1000" width="200" height="200" transform="translate(500, 500) rotate(180)"> -->
    <!-- <g id="CenterPoint" transform="translate(904.48, 672.42)">
      <circle class="cls-1" cx="95.52" cy="327.58" r="29.78" />
    </g>
    <g id="CenterPoint">
      <circle fill="red" cx="1000" cy="1000" r="10" />
    </g>
    <g id="RotatePivot">
      <circle class="cls-2" cx="90.14" cy="8.22" r="10" />
    </g>
    <g transform="translate(909.86, 991.78)">
      <g id="Blade">
        <path class="cls-1"
          d="M130.6,8.22H49.59c-2.97,0-5.81,1.26-7.8,3.46L3.23,54.26c-2.19,2.42-3.13,5.71-2.56,8.92l84.2,470.77c1.75,9.76,14.79,11.92,19.58,3.23h0c.59-1.07.99-2.24,1.18-3.45L179.66,63.06c.49-3.14-.46-6.34-2.6-8.7l-38.66-42.68c-2-2.2-4.83-3.46-7.8-3.46Z" />
        <animateTransform
          attributeName="transform"
          attributeType="XML"
          type="rotate"
          from="-180 90.14 8.22"
          to="180 90.14 8.22"
          dur="60s"
          repeatCount="indefinite" />
      </g> -->
    <!-- </g> -->

  <!-- </g> -->
  <!-- <g transform="translate(100, 100)">
    <rect width="100" height="100" class="cls-1">
      <animate
        attributeName="rx"
        values="0;50;0"
        dur="10s"
        repeatCount="indefinite" />
      <animateTransform
        attributeName="transform"
        attributeType="XML"
        type="rotate"
        from="0 50 50"
        to="360 50 50"
        dur="10s"
        repeatCount="indefinite" />
    </rect>
  </g> -->
  <!-- <path d="M 10 10 H 90 V 90 H 10 L 10 10"/> -->
  # Car Icon
  <svg viewBox="0 0 24 24" xmlns="http://www.w3.org/2000/svg" width="400" height="400"
    class="cls-1">
    <path
      d="M19 20H5V21C5 21.5523 4.55228 22 4 22H3C2.44772 22 2 21.5523 2 21V12L4.51334 5.29775C4.80607 4.51715 5.55231 4 6.386 4H17.614C18.4477 4 19.1939 4.51715 19.4867 5.29775L22 12V21C22 21.5523 21.5523 22 21 22H20C19.4477 22 19 21.5523 19 21V20ZM4.136 12H19.864L17.614 6H6.386L4.136 12ZM6.5 17C7.32843 17 8 16.3284 8 15.5C8 14.6716 7.32843 14 6.5 14C5.67157 14 5 14.6716 5 15.5C5 16.3284 5.67157 17 6.5 17ZM17.5 17C18.3284 17 19 16.3284 19 15.5C19 14.6716 18.3284 14 17.5 14C16.6716 14 16 14.6716 16 15.5C16 16.3284 16.6716 17 17.5 17Z"></path>
  </svg>

  # Clock
  <svg viewBox="0 0 1000 1000" xmlns="http://www.w3.org/2000/svg" width="2000" height="2000"
    class="cls-1">
    <g transform="translate(500, 500) scale(2)"> <!-- Position the clock -->
      <!-- Clock face -->
      <circle class="cls-2" cx="0" cy="0" r="100" fill="white" stroke="black" stroke-width="2" />

      <!-- Hour markers -->
      <g id="hours">
        <line x1="0" y1="-90" x2="0" y2="-80" stroke="black" stroke-width="3" transform="rotate(0)" />
        <line x1="0" y1="-90" x2="0" y2="-80" stroke="black" stroke-width="3" transform="rotate(30)" />
        <line x1="0" y1="-90" x2="0" y2="-80" stroke="black" stroke-width="3" transform="rotate(60)" />
        <line x1="0" y1="-90" x2="0" y2="-80" stroke="black" stroke-width="3" transform="rotate(90)" />
        <line x1="0" y1="-90" x2="0" y2="-80" stroke="black" stroke-width="3"
          transform="rotate(120)" />
        <line x1="0" y1="-90" x2="0" y2="-80" stroke="black" stroke-width="3"
          transform="rotate(150)" />
        <line x1="0" y1="-90" x2="0" y2="-80" stroke="black" stroke-width="3"
          transform="rotate(180)" />
        <line x1="0" y1="-90" x2="0" y2="-80" stroke="black" stroke-width="3"
          transform="rotate(210)" />
        <line x1="0" y1="-90" x2="0" y2="-80" stroke="black" stroke-width="3"
          transform="rotate(240)" />
        <line x1="0" y1="-90" x2="0" y2="-80" stroke="black" stroke-width="3"
          transform="rotate(270)" />
        <line x1="0" y1="-90" x2="0" y2="-80" stroke="black" stroke-width="3"
          transform="rotate(300)" />
        <line x1="0" y1="-90" x2="0" y2="-80" stroke="black" stroke-width="3"
          transform="rotate(330)" />
      </g>

      <!-- Clock hands -->
      <!-- Hour hand -->
      <line x1="0" y1="0" x2="0" y2="-50" stroke="black" stroke-width="4" stroke-linecap="round">
        <animateTransform
          attributeName="transform"
          attributeType="XML"
          type="rotate"
          from="0 0 0"
          to="360 0 0"
          dur="12h"
          repeatCount="indefinite" />
      </line>

      <!-- Minute hand -->
      <line x1="0" y1="0" x2="0" y2="-70" stroke="black" stroke-width="3" stroke-linecap="round">
        <animateTransform
          attributeName="transform"
          attributeType="XML"
          type="rotate"
          from="0 0 0"
          to="360 0 0"
          dur="60min"
          repeatCount="indefinite" />
      </line>

      <!-- Second hand -->
      <line x1="0" y1="0" x2="0" y2="-80" stroke="red" stroke-width="1" stroke-linecap="round">
        <animateTransform
          attributeName="transform"
          attributeType="XML"
          type="rotate"
          from="0 0 0"
          to="360 0 0"
          dur="60s"
          repeatCount="indefinite" />
      </line>

      <!-- Center dot -->
      <circle cx="0" cy="0" r="3" fill="black" />
    </g>
  </svg>
</svg>